<svg id="Camada_1" data-name="Camada 1" xmlns="http://www.w3.org/2000/svg" xmlns:xlink="http://www.w3.org/1999/xlink" viewBox="0 0 118.12 155.22"><defs><style>.cls-1{fill:url(#Gradiente_sem_nome_37);}.cls-2,.cls-3,.cls-4,.cls-5,.cls-6{fill:none;stroke-miterlimit:10;}.cls-2,.cls-3,.cls-4,.cls-5{stroke-linecap:round;}.cls-2,.cls-3,.cls-6{stroke-width:2px;}.cls-2{stroke:url(#Gradiente_sem_nome_64);}.cls-3{stroke:url(#Gradiente_sem_nome_64-2);}.cls-4,.cls-5{stroke-width:3px;}.cls-4{opacity:0.75;stroke:url(#Gradiente_sem_nome_64-3);}.cls-5{stroke:url(#Gradiente_sem_nome_64-4);}.cls-6{stroke:url(#Gradiente_sem_nome_64-5);}.cls-7{font-size:23.66px;fill:#fff;font-family:Helvetica-Bold, Helvetica;font-weight:700;}</style><linearGradient id="Gradiente_sem_nome_37" x1="115.28" y1="49.97" x2="29.49" y2="49.97" gradientUnits="userSpaceOnUse"><stop offset="0.17" stop-color="#e69524"/><stop offset="1" stop-color="#d15772"/></linearGradient><linearGradient id="Gradiente_sem_nome_64" x1="26.26" y1="54.53" x2="26.26" y2="61.42" gradientUnits="userSpaceOnUse"><stop offset="0.02" stop-color="#6fac98"/><stop offset="0.38" stop-color="#71b28f"/><stop offset="0.96" stop-color="#78c277"/><stop offset="1" stop-color="#78c375"/></linearGradient><linearGradient id="Gradiente_sem_nome_64-2" x1="44.35" y1="56.98" x2="44.35" y2="63.79" xlink:href="#Gradiente_sem_nome_64"/><linearGradient id="Gradiente_sem_nome_64-3" x1="44.35" y1="109.7" x2="44.35" y2="150.64" xlink:href="#Gradiente_sem_nome_64"/><linearGradient id="Gradiente_sem_nome_64-4" x1="44.35" y1="58.85" x2="44.35" y2="107.29" xlink:href="#Gradiente_sem_nome_64"/><linearGradient id="Gradiente_sem_nome_64-5" x1="44.35" y1="52.09" x2="44.35" y2="58.98" xlink:href="#Gradiente_sem_nome_64"/></defs><title>30alunos</title><circle class="cls-1" cx="72.38" cy="49.97" r="42.9"/><line class="cls-2" x1="26.26" y1="55.53" x2="26.26" y2="60.42"/><path class="cls-3" d="M31.21,62.79v-1c0-2.08,2.7-3.77,6-3.77H51.46c3.33,0,6,1.69,6,3.77v1"/><path class="cls-4" d="M4.37,149.14c0-20.95,17.9-37.94,40-37.94s40,17,40,37.94"/><circle class="cls-5" cx="44.35" cy="83.07" r="22.72"/><ellipse class="cls-6" cx="44.35" cy="55.53" rx="18.09" ry="2.44"/><text class="cls-7" transform="translate(36.2 59.37)">30.000</text></svg>