<svg xmlns="http://www.w3.org/2000/svg" xmlns:xlink="http://www.w3.org/1999/xlink" viewBox="0 0 162.96 62.76"><defs><style>.cls-1{fill:url(#Gradiente_sem_nome_64);}.cls-2{fill:url(#Gradiente_sem_nome_64-2);}.cls-3{fill:url(#Gradiente_sem_nome_64-3);}.cls-4{fill:url(#Gradiente_sem_nome_64-4);}.cls-5{fill:url(#Gradiente_sem_nome_64-5);}.cls-6{fill:url(#Gradiente_sem_nome_64-6);}.cls-7{fill:url(#Gradiente_sem_nome_64-7);}.cls-8{fill:url(#Gradiente_sem_nome_64-8);}.cls-9{fill:url(#Gradiente_sem_nome_64-9);}.cls-10{fill:url(#Gradiente_sem_nome_64-10);}.cls-11{fill:url(#Gradiente_sem_nome_64-11);}.cls-12{fill:url(#Gradiente_sem_nome_64-12);}.cls-13{fill:url(#Gradiente_sem_nome_64-13);}.cls-14{fill:url(#Gradiente_sem_nome_64-14);}.cls-15{fill:url(#Gradiente_sem_nome_64-15);}.cls-16{fill:url(#Gradiente_sem_nome_64-16);}.cls-17{fill:url(#Gradiente_sem_nome_64-17);}.cls-18{fill:url(#Gradiente_sem_nome_64-18);}.cls-19{fill:url(#Gradiente_sem_nome_64-19);}.cls-20{fill:url(#Gradiente_sem_nome_64-20);}.cls-21{fill:url(#Gradiente_sem_nome_64-21);}.cls-22{fill:url(#Gradiente_sem_nome_64-22);}.cls-23{fill:url(#Gradiente_sem_nome_64-23);}.cls-24{fill:url(#Gradiente_sem_nome_64-24);}.cls-25{fill:url(#Gradiente_sem_nome_64-25);}.cls-26{fill:url(#Gradiente_sem_nome_64-26);}.cls-27{fill:url(#Gradiente_sem_nome_64-27);}.cls-28{fill:url(#Gradiente_sem_nome_64-28);}.cls-29{fill:url(#Gradiente_sem_nome_64-29);}.cls-30{fill:url(#Gradiente_sem_nome_64-30);}.cls-31{fill:url(#Gradiente_sem_nome_64-31);}.cls-32{fill:url(#Gradiente_sem_nome_64-32);}</style><linearGradient id="Gradiente_sem_nome_64" x1="33.44" x2="33.44" y2="12.5" gradientUnits="userSpaceOnUse"><stop offset="0.02" stop-color="#42af99"/><stop offset="0.35" stop-color="#40b490"/><stop offset="0.88" stop-color="#3cc178"/><stop offset="1" stop-color="#3bc571"/></linearGradient><linearGradient id="Gradiente_sem_nome_64-2" x1="33.44" y1="14.34" x2="33.44" y2="22.91" xlink:href="#Gradiente_sem_nome_64"/><linearGradient id="Gradiente_sem_nome_64-3" x1="71.87" x2="71.87" y2="12.5" xlink:href="#Gradiente_sem_nome_64"/><linearGradient id="Gradiente_sem_nome_64-4" x1="71.87" y1="14.34" x2="71.87" y2="22.91" xlink:href="#Gradiente_sem_nome_64"/><linearGradient id="Gradiente_sem_nome_64-5" x1="110.31" x2="110.31" y2="12.5" xlink:href="#Gradiente_sem_nome_64"/><linearGradient id="Gradiente_sem_nome_64-6" x1="110.31" y1="14.34" x2="110.31" y2="22.91" xlink:href="#Gradiente_sem_nome_64"/><linearGradient id="Gradiente_sem_nome_64-7" x1="148.74" x2="148.74" y2="12.5" xlink:href="#Gradiente_sem_nome_64"/><linearGradient id="Gradiente_sem_nome_64-8" x1="148.74" y1="14.34" x2="148.74" y2="22.91" xlink:href="#Gradiente_sem_nome_64"/><linearGradient id="Gradiente_sem_nome_64-9" x1="14.22" y1="12.75" x2="14.22" y2="25.26" xlink:href="#Gradiente_sem_nome_64"/><linearGradient id="Gradiente_sem_nome_64-10" x1="14.22" y1="27.09" x2="14.22" y2="35.67" xlink:href="#Gradiente_sem_nome_64"/><linearGradient id="Gradiente_sem_nome_64-11" x1="52.65" y1="12.75" x2="52.65" y2="25.26" xlink:href="#Gradiente_sem_nome_64"/><linearGradient id="Gradiente_sem_nome_64-12" x1="52.65" y1="27.09" x2="52.65" y2="35.67" xlink:href="#Gradiente_sem_nome_64"/><linearGradient id="Gradiente_sem_nome_64-13" x1="91.09" y1="12.75" x2="91.09" y2="25.26" xlink:href="#Gradiente_sem_nome_64"/><linearGradient id="Gradiente_sem_nome_64-14" x1="91.09" y1="27.09" x2="91.09" y2="35.67" xlink:href="#Gradiente_sem_nome_64"/><linearGradient id="Gradiente_sem_nome_64-15" x1="129.53" y1="12.75" x2="129.53" y2="25.26" xlink:href="#Gradiente_sem_nome_64"/><linearGradient id="Gradiente_sem_nome_64-16" x1="129.53" y1="27.09" x2="129.53" y2="35.67" xlink:href="#Gradiente_sem_nome_64"/><linearGradient id="Gradiente_sem_nome_64-17" x1="33.44" y1="27.09" x2="33.44" y2="39.6" xlink:href="#Gradiente_sem_nome_64"/><linearGradient id="Gradiente_sem_nome_64-18" x1="33.44" y1="41.43" x2="33.44" y2="50.01" xlink:href="#Gradiente_sem_nome_64"/><linearGradient id="Gradiente_sem_nome_64-19" x1="71.87" y1="27.09" x2="71.87" y2="39.6" xlink:href="#Gradiente_sem_nome_64"/><linearGradient id="Gradiente_sem_nome_64-20" x1="71.87" y1="41.43" x2="71.87" y2="50.01" xlink:href="#Gradiente_sem_nome_64"/><linearGradient id="Gradiente_sem_nome_64-21" x1="110.31" y1="27.09" x2="110.31" y2="39.6" xlink:href="#Gradiente_sem_nome_64"/><linearGradient id="Gradiente_sem_nome_64-22" x1="110.31" y1="41.43" x2="110.31" y2="50.01" xlink:href="#Gradiente_sem_nome_64"/><linearGradient id="Gradiente_sem_nome_64-23" x1="148.74" y1="27.09" x2="148.74" y2="39.6" xlink:href="#Gradiente_sem_nome_64"/><linearGradient id="Gradiente_sem_nome_64-24" x1="148.74" y1="41.43" x2="148.74" y2="50.01" xlink:href="#Gradiente_sem_nome_64"/><linearGradient id="Gradiente_sem_nome_64-25" x1="14.22" y1="39.85" x2="14.22" y2="52.35" xlink:href="#Gradiente_sem_nome_64"/><linearGradient id="Gradiente_sem_nome_64-26" x1="14.22" y1="54.19" x2="14.22" y2="62.76" xlink:href="#Gradiente_sem_nome_64"/><linearGradient id="Gradiente_sem_nome_64-27" x1="52.65" y1="39.85" x2="52.65" y2="52.35" xlink:href="#Gradiente_sem_nome_64"/><linearGradient id="Gradiente_sem_nome_64-28" x1="52.65" y1="54.19" x2="52.65" y2="62.76" xlink:href="#Gradiente_sem_nome_64"/><linearGradient id="Gradiente_sem_nome_64-29" x1="91.09" y1="39.85" x2="91.09" y2="52.35" xlink:href="#Gradiente_sem_nome_64"/><linearGradient id="Gradiente_sem_nome_64-30" x1="91.09" y1="54.19" x2="91.09" y2="62.76" xlink:href="#Gradiente_sem_nome_64"/><linearGradient id="Gradiente_sem_nome_64-31" x1="129.53" y1="39.85" x2="129.53" y2="52.35" xlink:href="#Gradiente_sem_nome_64"/><linearGradient id="Gradiente_sem_nome_64-32" x1="129.53" y1="54.19" x2="129.53" y2="62.76" xlink:href="#Gradiente_sem_nome_64"/></defs><title>alunos</title><g id="Camada_2" data-name="Camada 2"><g id="enem_na_escola_e_ex-alunos" data-name="enem na escola e ex-alunos"><circle class="cls-1" cx="33.44" cy="6.25" r="6.25"/><path class="cls-2" d="M19.22,22.91c0-4.73,6.36-8.57,14.22-8.57s14.21,3.84,14.21,8.57"/><circle class="cls-3" cx="71.87" cy="6.25" r="6.25"/><path class="cls-4" d="M57.65,22.91c0-4.73,6.37-8.57,14.22-8.57s14.22,3.84,14.22,8.57"/><circle class="cls-5" cx="110.31" cy="6.25" r="6.25"/><path class="cls-6" d="M96.09,22.91c0-4.73,6.37-8.57,14.22-8.57s14.22,3.84,14.22,8.57"/><circle class="cls-7" cx="148.74" cy="6.25" r="6.25"/><path class="cls-8" d="M134.53,22.91c0-4.73,6.36-8.57,14.21-8.57S163,18.18,163,22.91"/><circle class="cls-9" cx="14.22" cy="19.01" r="6.25"/><path class="cls-10" d="M0,35.67c0-4.74,6.37-8.58,14.22-8.58s14.22,3.84,14.22,8.58"/><circle class="cls-11" cx="52.65" cy="19.01" r="6.25"/><path class="cls-12" d="M38.44,35.67c0-4.74,6.36-8.58,14.21-8.58s14.22,3.84,14.22,8.58"/><circle class="cls-13" cx="91.09" cy="19.01" r="6.25"/><path class="cls-14" d="M76.87,35.67c0-4.74,6.37-8.58,14.22-8.58s14.22,3.84,14.22,8.58"/><circle class="cls-15" cx="129.53" cy="19.01" r="6.25"/><path class="cls-16" d="M115.31,35.67c0-4.74,6.36-8.58,14.22-8.58s14.21,3.84,14.21,8.58"/><circle class="cls-17" cx="33.44" cy="33.34" r="6.25"/><path class="cls-18" d="M19.22,50c0-4.74,6.36-8.58,14.22-8.58S47.65,45.27,47.65,50"/><circle class="cls-19" cx="71.87" cy="33.34" r="6.25"/><path class="cls-20" d="M57.65,50c0-4.74,6.37-8.58,14.22-8.58S86.09,45.27,86.09,50"/><circle class="cls-21" cx="110.31" cy="33.34" r="6.25"/><path class="cls-22" d="M96.09,50c0-4.74,6.37-8.58,14.22-8.58s14.22,3.84,14.22,8.58"/><circle class="cls-23" cx="148.74" cy="33.34" r="6.25"/><path class="cls-24" d="M134.53,50c0-4.74,6.36-8.58,14.21-8.58S163,45.27,163,50"/><circle class="cls-25" cx="14.22" cy="46.1" r="6.25"/><path class="cls-26" d="M0,62.76C0,58,6.37,54.19,14.22,54.19S28.44,58,28.44,62.76"/><circle class="cls-27" cx="52.65" cy="46.1" r="6.25"/><path class="cls-28" d="M38.44,62.76c0-4.73,6.36-8.57,14.21-8.57S66.87,58,66.87,62.76"/><circle class="cls-29" cx="91.09" cy="46.1" r="6.25"/><path class="cls-30" d="M76.87,62.76c0-4.73,6.37-8.57,14.22-8.57s14.22,3.84,14.22,8.57"/><circle class="cls-31" cx="129.53" cy="46.1" r="6.25"/><path class="cls-32" d="M115.31,62.76c0-4.73,6.36-8.57,14.22-8.57s14.21,3.84,14.21,8.57"/></g></g></svg>