<svg xmlns="http://www.w3.org/2000/svg" xmlns:xlink="http://www.w3.org/1999/xlink" viewBox="0 0 127.96 120.67"><defs><style>.cls-1,.cls-2,.cls-3,.cls-4,.cls-5,.cls-6,.cls-7,.cls-8{fill:none;stroke-miterlimit:10;stroke-width:3px;}.cls-1,.cls-2{opacity:0.75;}.cls-1{stroke:url(#Gradiente_sem_nome_64);}.cls-2{stroke:url(#Gradiente_sem_nome_64-2);}.cls-3{stroke:url(#Gradiente_sem_nome_64-3);}.cls-4{stroke:url(#Gradiente_sem_nome_64-4);}.cls-5{stroke:url(#Gradiente_sem_nome_64-5);}.cls-6{stroke:url(#Gradiente_sem_nome_64-6);}.cls-7{stroke:url(#Gradiente_sem_nome_64-7);}.cls-8{stroke:url(#Gradiente_sem_nome_64-8);}</style><linearGradient id="Gradiente_sem_nome_64" x1="27.48" y1="47.08" x2="27.48" y2="120.67" gradientUnits="userSpaceOnUse"><stop offset="0.02" stop-color="#42af99"/><stop offset="0.35" stop-color="#40b490"/><stop offset="0.88" stop-color="#3cc178"/><stop offset="1" stop-color="#3bc571"/></linearGradient><linearGradient id="Gradiente_sem_nome_64-2" x1="83.15" y1="47.08" x2="83.15" y2="120.67" xlink:href="#Gradiente_sem_nome_64"/><linearGradient id="Gradiente_sem_nome_64-3" x1="63.98" y1="0" x2="63.98" y2="48.65" xlink:href="#Gradiente_sem_nome_64"/><linearGradient id="Gradiente_sem_nome_64-4" x1="46.2" y1="73.61" x2="46.2" y2="120.67" xlink:href="#Gradiente_sem_nome_64"/><linearGradient id="Gradiente_sem_nome_64-5" x1="83.92" y1="76.78" x2="83.92" y2="94.91" xlink:href="#Gradiente_sem_nome_64"/><linearGradient id="Gradiente_sem_nome_64-6" x1="52.97" y1="10.75" x2="52.97" y2="48.37" xlink:href="#Gradiente_sem_nome_64"/><linearGradient id="Gradiente_sem_nome_64-7" x1="79.39" y1="21.02" x2="79.39" y2="48.42" xlink:href="#Gradiente_sem_nome_64"/><linearGradient id="Gradiente_sem_nome_64-8" x1="103.57" y1="30.58" x2="103.57" y2="48.3" xlink:href="#Gradiente_sem_nome_64"/></defs><title>escola_1</title><g id="Camada_2" data-name="Camada 2"><g id="enem_na_escola_e_ex-alunos" data-name="enem na escola e ex-alunos"><path class="cls-1" d="M38.94,119.17H22.52a5,5,0,0,1-5-5V47.08"/><path class="cls-2" d="M111.35,47.08v67.09a5,5,0,0,1-5,5H53.46"/><path class="cls-3" d="M121.46,47.15H6.51A5,5,0,0,1,3.87,37.9L61.35,2.25a5,5,0,0,1,5.27,0L124.09,37.9A5,5,0,0,1,121.46,47.15Z"/><rect class="cls-4" x="35.22" y="75.11" width="21.97" height="44.06" rx="3.73"/><circle class="cls-5" cx="83.92" cy="85.84" r="7.57"/><line class="cls-6" x1="23.54" y1="47.08" x2="82.4" y2="12.04"/><line class="cls-7" x1="59.88" y1="47.15" x2="98.91" y2="22.28"/><line class="cls-8" x1="92.88" y1="47.08" x2="114.26" y2="31.8"/></g></g></svg>