<svg xmlns="http://www.w3.org/2000/svg" xmlns:xlink="http://www.w3.org/1999/xlink" viewBox="0 0 67.87 108.37"><defs><style>.cls-1,.cls-10,.cls-11,.cls-12,.cls-2,.cls-3,.cls-4,.cls-5,.cls-6,.cls-7,.cls-8,.cls-9{fill:none;stroke-miterlimit:10;}.cls-1{stroke-width:3px;opacity:0.75;stroke:url(#Gradiente_sem_nome_64);}.cls-2{stroke-width:2px;stroke:url(#Gradiente_sem_nome_64-2);}.cls-3{stroke:url(#Gradiente_sem_nome_64-3);}.cls-4{stroke:url(#Gradiente_sem_nome_64-4);}.cls-5{stroke:url(#Gradiente_sem_nome_64-5);}.cls-6{stroke:url(#Gradiente_sem_nome_64-6);}.cls-7{stroke:url(#Gradiente_sem_nome_64-7);}.cls-8{stroke:url(#Gradiente_sem_nome_64-8);}.cls-9{stroke:url(#Gradiente_sem_nome_64-9);}.cls-10{stroke:url(#Gradiente_sem_nome_64-10);}.cls-11{stroke:url(#Gradiente_sem_nome_64-11);}.cls-12{stroke:url(#Gradiente_sem_nome_64-12);}.cls-13{fill:url(#Gradiente_sem_nome_64-13);}.cls-14{fill:url(#Gradiente_sem_nome_64-14);}.cls-15{fill:url(#Gradiente_sem_nome_64-15);}</style><linearGradient id="Gradiente_sem_nome_64" x1="33.94" x2="33.94" y2="108.37" gradientUnits="userSpaceOnUse"><stop offset="0.02" stop-color="#42af99"/><stop offset="0.35" stop-color="#40b490"/><stop offset="0.88" stop-color="#3cc178"/><stop offset="1" stop-color="#3bc571"/></linearGradient><linearGradient id="Gradiente_sem_nome_64-2" x1="33.95" y1="11.98" x2="33.95" y2="93.96" xlink:href="#Gradiente_sem_nome_64"/><linearGradient id="Gradiente_sem_nome_64-3" x1="33.94" y1="5.16" x2="33.94" y2="9.89" xlink:href="#Gradiente_sem_nome_64"/><linearGradient id="Gradiente_sem_nome_64-4" x1="33.94" y1="95.62" x2="33.94" y2="104.08" xlink:href="#Gradiente_sem_nome_64"/><linearGradient id="Gradiente_sem_nome_64-5" x1="33.79" y1="25.5" x2="33.79" y2="26.5" xlink:href="#Gradiente_sem_nome_64"/><linearGradient id="Gradiente_sem_nome_64-6" x1="33.79" y1="30.15" x2="33.79" y2="31.15" xlink:href="#Gradiente_sem_nome_64"/><linearGradient id="Gradiente_sem_nome_64-7" x1="33.79" y1="62.16" x2="33.79" y2="63.16" xlink:href="#Gradiente_sem_nome_64"/><linearGradient id="Gradiente_sem_nome_64-8" x1="33.79" y1="66.81" x2="33.79" y2="67.81" xlink:href="#Gradiente_sem_nome_64"/><linearGradient id="Gradiente_sem_nome_64-9" x1="33.79" y1="71.46" x2="33.79" y2="72.46" xlink:href="#Gradiente_sem_nome_64"/><linearGradient id="Gradiente_sem_nome_64-10" x1="33.79" y1="76.11" x2="33.79" y2="77.11" xlink:href="#Gradiente_sem_nome_64"/><linearGradient id="Gradiente_sem_nome_64-11" x1="33.79" y1="81.21" x2="33.79" y2="82.21" xlink:href="#Gradiente_sem_nome_64"/><linearGradient id="Gradiente_sem_nome_64-12" x1="33.79" y1="85.86" x2="33.79" y2="86.86" xlink:href="#Gradiente_sem_nome_64"/><linearGradient id="Gradiente_sem_nome_64-13" x1="43" y1="17.11" x2="43" y2="20.94" xlink:href="#Gradiente_sem_nome_64"/><linearGradient id="Gradiente_sem_nome_64-14" x1="24.58" y1="17.11" x2="24.58" y2="20.94" xlink:href="#Gradiente_sem_nome_64"/><linearGradient id="Gradiente_sem_nome_64-15" x1="33.79" y1="36.26" x2="33.79" y2="57.05" xlink:href="#Gradiente_sem_nome_64"/></defs><title>plataforma</title><g id="Camada_2" data-name="Camada 2"><g id="enem_na_escola_e_ex-alunos" data-name="enem na escola e ex-alunos"><rect class="cls-1" x="1.5" y="1.5" width="64.87" height="105.37" rx="5"/><rect class="cls-2" x="7.07" y="12.98" width="53.76" height="79.98" rx="2"/><circle class="cls-3" cx="33.94" cy="7.52" r="1.86"/><circle class="cls-4" cx="33.94" cy="99.85" r="3.73"/><line class="cls-5" x1="17.38" y1="26" x2="50.21" y2="26"/><line class="cls-6" x1="17.38" y1="30.65" x2="50.21" y2="30.65"/><line class="cls-7" x1="17.38" y1="62.66" x2="50.21" y2="62.66"/><line class="cls-8" x1="17.38" y1="67.31" x2="50.21" y2="67.31"/><line class="cls-9" x1="17.38" y1="71.96" x2="50.21" y2="71.96"/><line class="cls-10" x1="17.38" y1="76.61" x2="50.21" y2="76.61"/><line class="cls-11" x1="17.38" y1="81.71" x2="50.21" y2="81.71"/><line class="cls-12" x1="17.38" y1="86.36" x2="50.21" y2="86.36"/><rect class="cls-13" x="35.8" y="17.11" width="14.41" height="3.83"/><rect class="cls-14" x="17.38" y="17.11" width="14.41" height="3.83"/><rect class="cls-15" x="17.38" y="36.26" width="32.83" height="20.79"/></g></g></svg>